# xmcd CD database file
#
# Track frame offsets:
#	150
#	19980
#	40231
#	56873
#	72991
#	108929
#	136797
#	155335
#	177366
#	197688
#	219794
#	233133
#	258998
#	282045
#	307806
#
# Disc length: 4153 seconds
#
# Revision: 2
# Processed by: cddbd v1.5.2PL0 Copyright (c) Steve Scherf et al.
# Submitted via: CDex 1.78
#
DISCID=ca10370f
DTITLE=The Jacksons - The Very Best Of The Jacksons
DYEAR=2009
DGENRE=Soul
TTITLE0=Music's Taking Over
TTITLE1=Goin' Places
TTITLE2=Enjoy Yourself
TTITLE3=Blame It On The Boogie
TTITLE4=Shake Your Body (Down To The Ground)
TTITLE5=All Night Dancin'
TTITLE6=Things I Do for You
TTITLE7=Lovely One
TTITLE8=State Of Shock
TTITLE9=Torture
TTITLE10=Medley: I Want You Back/ABC/The Love You Save (Live)
TTITLE11=This Place Hotel (a.k.a. Heartbreak Hotel)
TTITLE12=2300 Jackson Street
TTITLE13=Man of War
TTITLE14=Data Track
EXTD=YEAR: 2009
EXTT0=
EXTT1=
EXTT2=
EXTT3=
EXTT4=
EXTT5=
EXTT6=
EXTT7=
EXTT8=
EXTT9=
EXTT10=
EXTT11=
EXTT12=
EXTT13=
EXTT14=
PLAYORDER=
